<svg xmlns="http://www.w3.org/2000/svg" xmlns:xlink="http://www.w3.org/1999/xlink"><polygon points="0,200 0,100 1,101 2,102 3,103 4,104 5,103 6,104 7,103 8,104 9,105 10,106 11,107 12,106 13,107 14,108 15,107 16,108 17,107 18,108 19,107 20,106 21,107 22,108 23,109 24,108 25,109 26,108 27,107 28,106 29,105 30,104 31,105 32,104 33,103 34,104 35,105 36,106 37,105 38,104 39,105 40,104 41,105 42,104 43,103 44,102 45,103 46,104 47,103 48,104 49,103 50,104 51,105 52,106 53,105 54,106 55,107 56,108 57,107 58,108 59,107 60,106 61,107 62,108 63,109 64,108 65,109 66,110 67,111 68,110 69,111 70,110 71,109 72,108 73,109 74,110 75,109 76,108 77,107 78,106 79,107 80,108 81,109 82,110 83,109 84,110 85,109 86,110 87,111 88,112 89,111 90,110 91,111 92,110 93,109 94,108 95,107 96,108 97,109 98,110 99,111 100,110 101,111 102,110 103,109 104,108 105,109 106,108 107,109 108,108 109,109 110,108 111,107 112,106 113,105 114,106 115,107 116,108 117,109 118,110 119,109 120,108 121,109 122,110 123,111 124,110 125,109 126,108 127,107 128,108 129,109 130,110 131,111 132,112 133,111 134,112 135,113 136,114 137,113 138,112 139,113 140,112 141,113 142,114 143,115 144,116 145,117 146,116 147,115 148,114 149,115 150,114 151,113 152,114 153,115 154,116 155,115 156,116 157,115 158,116 159,117 160,116 161,115 162,114 163,113 164,114 165,115 166,114 167,115 168,114 169,115 170,116 171,117 172,118 173,117 174,118 175,117 176,116 177,117 178,118 179,117 180,118 181,119 182,118 183,119 184,118 185,119 186,120 187,119 188,120 189,121 190,122 191,123 192,122 193,121 194,122 195,121 196,120 197,119 198,118 199,119 200,118 201,117 202,118 203,117 204,116 205,115 206,116 207,115 208,116 209,115 210,114 211,113 212,114 213,113 214,114 215,113 216,114 217,115 218,116 219,117 220,116 221,115 222,116 223,115 224,116 225,117 226,116 227,117 228,118 229,117 230,116 231,117 232,118 233,119 234,118 235,117 236,118 237,117 238,118 239,117 240,118 241,117 242,118 243,117 244,118 245,119 246,120 247,119 248,120 249,119 250,120 251,121 252,122 253,123 254,122 255,123 256,124 257,123 258,124 259,125 260,124 261,123 262,124 263,123 264,124 265,125 266,124 267,125 268,124 269,125 270,124 271,123 272,124 273,123 274,124 275,125 276,124 277,123 278,122 279,121 280,122 281,121 282,120 283,121 284,122 285,123 286,122 287,121 288,122 289,123 290,124 291,123 292,122 293,121 294,122 295,123 296,124 297,125 298,126 299,125 300,124 301,125 302,124 303,123 304,124 305,125 306,124 307,125 308,124 309,125 310,124 311,123 312,124 313,125 314,126 315,127 316,128 317,129 318,130 319,129 320,130 321,131 322,132 323,131 324,130 325,129 326,130 327,129 328,130 329,131 330,130 331,129 332,128 333,127 334,128 335,129 336,130 337,131 338,130 339,129 340,128 341,127 342,126 343,125 344,124 345,125 346,124 347,123 348,124 349,125 350,124 351,123 352,122 353,123 354,124 355,123 356,122 357,123 358,124 359,125 360,124 361,125 362,126 363,127 364,126 365,127 366,128 367,127 368,126 369,125 370,126 371,125 372,124 373,123 374,124 375,123 376,122 377,121 378,122 379,121 380,122 381,123 382,122 383,121 384,120 385,121 386,122 387,121 388,120 389,119 390,120 391,121 392,122 393,121 394,120 395,121 396,120 397,121 398,120 399,121 400,200 " style="fill:rgb(96,247,187);stroke:rgb(0,147,87)"></polygon><polygon points="0,200 0,100 1,99 2,98 3,99 4,100 5,101 6,100 7,101 8,102 9,103 10,104 11,105 12,104 13,105 14,106 15,105 16,106 17,107 18,108 19,107 20,108 21,107 22,106 23,105 24,106 25,107 26,108 27,107 28,106 29,105 30,106 31,105 32,106 33,107 34,106 35,105 36,104 37,105 38,104 39,105 40,106 41,105 42,104 43,105 44,104 45,105 46,104 47,105 48,104 49,105 50,104 51,105 52,106 53,107 54,106 55,105 56,104 57,103 58,102 59,101 60,100 61,101 62,102 63,103 64,104 65,103 66,102 67,103 68,104 69,103 70,102 71,103 72,102 73,103 74,104 75,105 76,106 77,105 78,104 79,103 80,104 81,103 82,102 83,101 84,102 85,103 86,104 87,103 88,102 89,103 90,104 91,103 92,102 93,103 94,104 95,103 96,104 97,105 98,106 99,105 100,106 101,105 102,104 103,105 104,104 105,103 106,102 107,101 108,100 109,99 110,100 111,99 112,98 113,97 114,98 115,99 116,98 117,99 118,100 119,101 120,102 121,101 122,102 123,103 124,102 125,103 126,104 127,103 128,104 129,103 130,102 131,101 132,100 133,99 134,100 135,99 136,98 137,97 138,96 139,95 140,94 141,93 142,94 143,95 144,94 145,95 146,96 147,97 148,98 149,99 150,98 151,99 152,98 153,97 154,96 155,97 156,98 157,99 158,100 159,99 160,98 161,97 162,98 163,97 164,96 165,95 166,94 167,93 168,92 169,93 170,92 171,93 172,94 173,93 174,92 175,93 176,92 177,93 178,92 179,93 180,92 181,93 182,92 183,91 184,90 185,91 186,90 187,89 188,90 189,91 190,90 191,89 192,90 193,89 194,90 195,89 196,90 197,89 198,90 199,89 200,90 201,91 202,90 203,89 204,90 205,91 206,90 207,91 208,90 209,91 210,90 211,91 212,92 213,91 214,92 215,91 216,92 217,91 218,90 219,91 220,90 221,89 222,90 223,89 224,88 225,87 226,88 227,87 228,88 229,89 230,90 231,91 232,92 233,91 234,90 235,89 236,90 237,91 238,90 239,89 240,88 241,89 242,90 243,89 244,90 245,89 246,90 247,91 248,92 249,91 250,92 251,93 252,94 253,95 254,94 255,93 256,94 257,95 258,94 259,95 260,94 261,93 262,94 263,93 264,92 265,91 266,92 267,93 268,94 269,93 270,92 271,91 272,92 273,91 274,90 275,89 276,90 277,91 278,90 279,91 280,92 281,93 282,94 283,95 284,96 285,95 286,96 287,97 288,98 289,99 290,100 291,101 292,102 293,103 294,104 295,103 296,102 297,103 298,104 299,105 300,104 301,103 302,104 303,105 304,106 305,107 306,106 307,107 308,108 309,109 310,110 311,111 312,110 313,111 314,112 315,113 316,112 317,113 318,114 319,113 320,114 321,113 322,114 323,113 324,112 325,113 326,114 327,113 328,114 329,113 330,112 331,113 332,114 333,115 334,114 335,113 336,112 337,111 338,112 339,113 340,114 341,113 342,114 343,115 344,114 345,113 346,114 347,115 348,114 349,115 350,116 351,117 352,118 353,119 354,118 355,117 356,118 357,117 358,118 359,119 360,120 361,121 362,120 363,119 364,118 365,119 366,120 367,119 368,118 369,119 370,120 371,119 372,118 373,117 374,116 375,117 376,118 377,117 378,118 379,119 380,118 381,119 382,120 383,121 384,120 385,121 386,122 387,123 388,124 389,123 390,122 391,123 392,124 393,125 394,126 395,125 396,126 397,127 398,126 399,127 400,200 " style="fill:rgb(54,121,70);stroke:rgb(0,21,0)"></polygon><polygon points="0,200 0,100 1,99 2,98 3,97 4,96 5,95 6,96 7,95 8,94 9,95 10,96 11,95 12,96 13,95 14,94 15,93 16,94 17,95 18,94 19,95 20,94 21,95 22,94 23,95 24,96 25,95 26,96 27,95 28,96 29,97 30,96 31,97 32,96 33,97 34,98 35,97 36,98 37,97 38,98 39,99 40,100 41,101 42,102 43,101 44,102 45,103 46,102 47,103 48,104 49,105 50,106 51,105 52,106 53,105 54,104 55,105 56,104 57,103 58,102 59,103 60,104 61,105 62,104 63,103 64,102 65,103 66,104 67,105 68,104 69,105 70,106 71,105 72,104 73,103 74,102 75,103 76,104 77,105 78,104 79,105 80,106 81,105 82,104 83,103 84,104 85,103 86,104 87,105 88,104 89,103 90,102 91,103 92,102 93,103 94,104 95,105 96,104 97,103 98,102 99,103 100,102 101,103 102,102 103,103 104,102 105,101 106,102 107,101 108,100 109,99 110,100 111,101 112,100 113,101 114,100 115,99 116,98 117,99 118,100 119,99 120,100 121,99 122,98 123,97 124,96 125,95 126,96 127,95 128,96 129,95 130,96 131,95 132,94 133,95 134,94 135,95 136,94 137,95 138,94 139,93 140,92 141,91 142,90 143,91 144,92 145,91 146,90 147,91 148,90 149,91 150,90 151,89 152,90 153,91 154,92 155,91 156,92 157,93 158,92 159,93 160,92 161,91 162,90 163,91 164,92 165,91 166,92 167,93 168,92 169,93 170,94 171,95 172,96 173,95 174,94 175,93 176,92 177,93 178,94 179,93 180,92 181,91 182,92 183,93 184,94 185,93 186,92 187,93 188,94 189,93 190,94 191,95 192,96 193,97 194,96 195,97 196,96 197,95 198,94 199,95 200,94 201,95 202,96 203,97 204,98 205,97 206,96 207,95 208,96 209,95 210,96 211,95 212,94 213,93 214,92 215,93 216,92 217,93 218,92 219,91 220,90 221,91 222,90 223,91 224,90 225,91 226,90 227,89 228,88 229,89 230,88 231,89 232,88 233,89 234,90 235,89 236,88 237,87 238,88 239,89 240,90 241,89 242,90 243,91 244,92 245,91 246,92 247,91 248,90 249,89 250,88 251,89 252,88 253,89 254,88 255,89 256,88 257,87 258,86 259,85 260,86 261,85 262,86 263,85 264,86 265,87 266,88 267,87 268,86 269,87 270,88 271,89 272,88 273,87 274,88 275,87 276,86 277,85 278,86 279,85 280,86 281,85 282,84 283,85 284,86 285,87 286,86 287,87 288,86 289,87 290,86 291,85 292,84 293,83 294,84 295,85 296,84 297,83 298,82 299,83 300,82 301,81 302,82 303,81 304,82 305,81 306,82 307,83 308,84 309,85 310,86 311,85 312,84 313,85 314,86 315,87 316,86 317,87 318,86 319,85 320,84 321,85 322,86 323,87 324,88 325,89 326,90 327,89 328,90 329,91 330,90 331,89 332,88 333,89 334,90 335,89 336,90 337,91 338,90 339,91 340,90 341,91 342,92 343,91 344,90 345,91 346,90 347,91 348,90 349,91 350,90 351,89 352,90 353,89 354,88 355,89 356,90 357,91 358,90 359,91 360,92 361,91 362,92 363,93 364,94 365,95 366,96 367,95 368,96 369,97 370,98 371,97 372,96 373,95 374,94 375,95 376,96 377,95 378,96 379,97 380,98 381,97 382,96 383,95 384,96 385,95 386,96 387,95 388,94 389,95 390,94 391,95 392,96 393,97 394,96 395,95 396,94 397,93 398,92 399,91 400,200 " style="fill:rgb(12,106,100);stroke:rgb(0,6,0)"></polygon><polygon points="0,200 0,100 1,99 2,98 3,99 4,98 5,99 6,98 7,97 8,96 9,95 10,94 11,95 12,96 13,95 14,94 15,93 16,94 17,93 18,92 19,93 20,94 21,95 22,96 23,95 24,94 25,95 26,94 27,95 28,94 29,95 30,94 31,93 32,94 33,93 34,94 35,93 36,94 37,95 38,96 39,97 40,98 41,99 42,100 43,99 44,98 45,99 46,98 47,97 48,98 49,97 50,96 51,95 52,96 53,97 54,98 55,99 56,98 57,97 58,96 59,95 60,96 61,97 62,98 63,99 64,100 65,99 66,100 67,101 68,100 69,99 70,98 71,99 72,98 73,97 74,98 75,97 76,96 77,97 78,98 79,99 80,98 81,99 82,100 83,101 84,102 85,103 86,104 87,105 88,104 89,105 90,106 91,107 92,106 93,105 94,106 95,107 96,106 97,107 98,108 99,107 100,108 101,107 102,108 103,109 104,110 105,109 106,108 107,109 108,108 109,109 110,108 111,109 112,108 113,107 114,106 115,107 116,106 117,105 118,106 119,107 120,106 121,107 122,108 123,109 124,110 125,109 126,110 127,109 128,110 129,109 130,110 131,109 132,110 133,111 134,112 135,113 136,112 137,111 138,110 139,111 140,112 141,111 142,112 143,111 144,110 145,111 146,110 147,111 148,112 149,113 150,112 151,111 152,112 153,113 154,112 155,113 156,114 157,113 158,114 159,113 160,112 161,113 162,112 163,111 164,112 165,111 166,112 167,111 168,110 169,109 170,108 171,109 172,110 173,111 174,110 175,109 176,110 177,109 178,110 179,111 180,110 181,109 182,110 183,109 184,108 185,109 186,108 187,109 188,108 189,107 190,108 191,109 192,108 193,107 194,106 195,105 196,106 197,105 198,106 199,107 200,106 201,105 202,106 203,107 204,106 205,107 206,106 207,107 208,108 209,109 210,110 211,111 212,112 213,111 214,110 215,111 216,112 217,111 218,112 219,113 220,112 221,113 222,112 223,111 224,112 225,111 226,112 227,113 228,112 229,113 230,114 231,113 232,114 233,115 234,116 235,115 236,116 237,115 238,114 239,113 240,112 241,113 242,114 243,113 244,114 245,113 246,114 247,113 248,114 249,115 250,116 251,115 252,116 253,115 254,116 255,117 256,118 257,119 258,120 259,121 260,122 261,123 262,122 263,123 264,124 265,123 266,122 267,123 268,124 269,125 270,124 271,123 272,124 273,125 274,124 275,125 276,126 277,125 278,126 279,125 280,124 281,123 282,124 283,125 284,126 285,127 286,126 287,125 288,126 289,127 290,126 291,125 292,124 293,125 294,124 295,123 296,122 297,123 298,124 299,123 300,122 301,121 302,120 303,121 304,120 305,121 306,120 307,119 308,120 309,119 310,120 311,121 312,120 313,121 314,122 315,121 316,120 317,119 318,118 319,117 320,116 321,115 322,114 323,113 324,114 325,113 326,114 327,113 328,114 329,113 330,112 331,113 332,112 333,113 334,114 335,115 336,114 337,113 338,114 339,115 340,116 341,115 342,116 343,117 344,116 345,117 346,118 347,117 348,118 349,117 350,118 351,117 352,118 353,117 354,116 355,117 356,118 357,117 358,118 359,117 360,116 361,115 362,114 363,113 364,112 365,113 366,112 367,113 368,112 369,111 370,110 371,111 372,110 373,111 374,110 375,111 376,112 377,111 378,110 379,111 380,110 381,111 382,112 383,111 384,110 385,111 386,110 387,111 388,110 389,111 390,110 391,109 392,108 393,107 394,106 395,105 396,104 397,105 398,106 399,107 400,200 " style="fill:rgb(61,88,239);stroke:rgb(0,0,139)"></polygon><polygon points="0,200 0,100 1,101 2,100 3,99 4,98 5,99 6,98 7,99 8,100 9,101 10,102 11,101 12,102 13,103 14,102 15,103 16,104 17,103 18,102 19,101 20,102 21,101 22,100 23,99 24,98 25,99 26,100 27,99 28,98 29,97 30,96 31,97 32,98 33,97 34,98 35,99 36,98 37,97 38,98 39,97 40,98 41,99 42,98 43,97 44,98 45,97 46,96 47,97 48,98 49,99 50,100 51,99 52,98 53,97 54,96 55,95 56,96 57,95 58,96 59,95 60,96 61,97 62,96 63,97 64,98 65,97 66,98 67,97 68,98 69,97 70,98 71,97 72,96 73,97 74,96 75,97 76,96 77,95 78,96 79,95 80,96 81,97 82,98 83,97 84,98 85,97 86,98 87,99 88,100 89,101 90,100 91,99 92,98 93,97 94,96 95,97 96,96 97,97 98,98 99,97 100,96 101,97 102,96 103,97 104,96 105,97 106,98 107,97 108,98 109,97 110,98 111,97 112,96 113,95 114,96 115,97 116,96 117,95 118,94 119,95 120,94 121,93 122,94 123,93 124,94 125,95 126,94 127,93 128,94 129,95 130,96 131,97 132,96 133,97 134,98 135,99 136,100 137,99 138,98 139,99 140,100 141,99 142,100 143,101 144,102 145,103 146,104 147,103 148,104 149,105 150,106 151,105 152,106 153,105 154,104 155,103 156,104 157,103 158,102 159,101 160,100 161,101 162,102 163,103 164,104 165,105 166,104 167,105 168,106 169,105 170,106 171,105 172,106 173,107 174,108 175,109 176,108 177,107 178,108 179,109 180,110 181,109 182,108 183,107 184,106 185,105 186,104 187,105 188,104 189,103 190,102 191,103 192,104 193,103 194,104 195,105 196,106 197,107 198,106 199,105 200,104 201,105 202,106 203,105 204,104 205,103 206,102 207,103 208,102 209,101 210,100 211,99 212,100 213,99 214,98 215,99 216,98 217,97 218,98 219,99 220,100 221,99 222,100 223,99 224,100 225,99 226,98 227,97 228,98 229,99 230,98 231,97 232,96 233,97 234,98 235,97 236,98 237,99 238,100 239,101 240,100 241,101 242,102 243,103 244,102 245,103 246,102 247,103 248,102 249,101 250,102 251,103 252,104 253,103 254,102 255,101 256,102 257,103 258,104 259,105 260,104 261,103 262,102 263,103 264,102 265,101 266,102 267,101 268,102 269,101 270,100 271,99 272,98 273,99 274,98 275,99 276,98 277,99 278,98 279,99 280,98 281,99 282,98 283,97 284,98 285,97 286,98 287,99 288,100 289,99 290,98 291,99 292,98 293,99 294,98 295,99 296,98 297,97 298,98 299,99 300,98 301,99 302,100 303,99 304,98 305,97 306,98 307,99 308,100 309,101 310,102 311,101 312,100 313,101 314,100 315,101 316,100 317,101 318,102 319,103 320,104 321,103 322,102 323,103 324,104 325,103 326,102 327,101 328,100 329,99 330,98 331,97 332,98 333,99 334,100 335,101 336,100 337,99 338,100 339,101 340,100 341,101 342,102 343,101 344,100 345,99 346,100 347,101 348,102 349,101 350,100 351,101 352,100 353,101 354,102 355,101 356,100 357,101 358,102 359,101 360,102 361,101 362,102 363,103 364,102 365,103 366,104 367,105 368,106 369,107 370,108 371,107 372,108 373,107 374,106 375,107 376,108 377,107 378,106 379,107 380,108 381,109 382,108 383,107 384,106 385,107 386,108 387,107 388,106 389,107 390,106 391,105 392,104 393,103 394,102 395,101 396,102 397,103 398,104 399,103 400,200 " style="fill:rgb(176,35,245);stroke:rgb(76,0,145)"></polygon><polygon points="0,200 0,100 1,101 2,102 3,103 4,102 5,101 6,102 7,103 8,102 9,101 10,100 11,99 12,98 13,97 14,98 15,97 16,96 17,97 18,98 19,99 20,98 21,99 22,100 23,101 24,102 25,103 26,102 27,103 28,102 29,103 30,104 31,105 32,104 33,103 34,102 35,103 36,104 37,103 38,104 39,103 40,102 41,101 42,100 43,101 44,102 45,103 46,102 47,101 48,100 49,101 50,102 51,103 52,102 53,101 54,100 55,99 56,100 57,101 58,100 59,99 60,98 61,99 62,100 63,99 64,100 65,99 66,100 67,99 68,100 69,101 70,102 71,101 72,102 73,101 74,100 75,99 76,98 77,99 78,98 79,99 80,98 81,99 82,98 83,99 84,100 85,99 86,100 87,99 88,100 89,101 90,102 91,103 92,102 93,101 94,102 95,103 96,104 97,105 98,106 99,105 100,106 101,107 102,106 103,105 104,104 105,103 106,102 107,103 108,102 109,101 110,102 111,101 112,102 113,101 114,100 115,101 116,100 117,99 118,100 119,99 120,100 121,99 122,100 123,99 124,100 125,99 126,100 127,99 128,98 129,99 130,98 131,97 132,98 133,99 134,98 135,97 136,96 137,97 138,96 139,95 140,96 141,95 142,94 143,95 144,94 145,93 146,94 147,95 148,96 149,95 150,94 151,95 152,94 153,93 154,92 155,93 156,94 157,95 158,96 159,97 160,96 161,95 162,94 163,95 164,96 165,97 166,98 167,97 168,98 169,97 170,98 171,99 172,100 173,101 174,100 175,101 176,102 177,103 178,102 179,101 180,102 181,101 182,100 183,101 184,100 185,101 186,100 187,101 188,100 189,101 190,102 191,103 192,104 193,105 194,106 195,107 196,106 197,105 198,104 199,105 200,106 201,107 202,106 203,107 204,108 205,109 206,110 207,109 208,108 209,107 210,106 211,105 212,104 213,105 214,104 215,103 216,104 217,105 218,104 219,103 220,102 221,101 222,100 223,101 224,102 225,101 226,102 227,101 228,100 229,101 230,102 231,101 232,102 233,101 234,102 235,103 236,102 237,101 238,102 239,101 240,100 241,99 242,100 243,101 244,100 245,99 246,100 247,101 248,102 249,101 250,100 251,101 252,102 253,103 254,104 255,105 256,104 257,103 258,102 259,103 260,104 261,103 262,104 263,105 264,106 265,105 266,104 267,105 268,104 269,105 270,106 271,107 272,106 273,107 274,108 275,109 276,108 277,109 278,108 279,107 280,106 281,105 282,106 283,107 284,108 285,107 286,106 287,107 288,108 289,109 290,110 291,111 292,112 293,113 294,114 295,115 296,114 297,113 298,112 299,111 300,112 301,113 302,112 303,113 304,112 305,113 306,114 307,113 308,114 309,115 310,116 311,115 312,114 313,113 314,114 315,115 316,116 317,115 318,114 319,113 320,112 321,113 322,112 323,113 324,112 325,111 326,112 327,111 328,112 329,111 330,110 331,109 332,108 333,107 334,108 335,107 336,106 337,107 338,106 339,105 340,106 341,105 342,104 343,103 344,102 345,101 346,100 347,99 348,100 349,101 350,100 351,101 352,100 353,99 354,98 355,97 356,96 357,95 358,96 359,95 360,94 361,93 362,92 363,93 364,92 365,91 366,92 367,93 368,94 369,93 370,94 371,93 372,92 373,91 374,92 375,91 376,90 377,89 378,88 379,89 380,88 381,89 382,88 383,87 384,86 385,85 386,84 387,85 388,84 389,83 390,82 391,81 392,82 393,83 394,82 395,83 396,84 397,83 398,84 399,83 400,200 " style="fill:rgb(17,195,26);stroke:rgb(0,95,0)"></polygon><polygon points="0,200 0,100 1,99 2,98 3,99 4,98 5,97 6,98 7,99 8,100 9,99 10,100 11,99 12,100 13,99 14,100 15,99 16,100 17,101 18,102 19,103 20,104 21,105 22,106 23,107 24,106 25,107 26,108 27,107 28,106 29,107 30,108 31,109 32,110 33,111 34,112 35,113 36,114 37,115 38,114 39,115 40,114 41,115 42,114 43,113 44,114 45,113 46,112 47,111 48,110 49,111 50,112 51,111 52,110 53,111 54,110 55,109 56,108 57,109 58,110 59,109 60,110 61,109 62,110 63,109 64,108 65,109 66,110 67,111 68,112 69,111 70,112 71,113 72,112 73,113 74,114 75,115 76,116 77,117 78,118 79,119 80,120 81,119 82,118 83,119 84,118 85,119 86,118 87,119 88,118 89,117 90,116 91,117 92,118 93,117 94,116 95,115 96,116 97,117 98,116 99,115 100,116 101,117 102,118 103,119 104,118 105,117 106,116 107,115 108,116 109,117 110,118 111,119 112,118 113,119 114,120 115,121 116,120 117,121 118,122 119,121 120,120 121,119 122,120 123,119 124,118 125,117 126,116 127,115 128,114 129,115 130,114 131,113 132,112 133,113 134,112 135,111 136,112 137,111 138,112 139,111 140,112 141,111 142,110 143,109 144,110 145,109 146,108 147,107 148,108 149,107 150,108 151,107 152,106 153,107 154,108 155,107 156,106 157,105 158,106 159,105 160,106 161,107 162,108 163,109 164,110 165,109 166,108 167,107 168,108 169,107 170,106 171,107 172,106 173,105 174,104 175,103 176,104 177,103 178,102 179,103 180,104 181,105 182,106 183,107 184,108 185,107 186,106 187,107 188,108 189,109 190,108 191,107 192,108 193,107 194,108 195,107 196,108 197,107 198,106 199,107 200,106 201,105 202,104 203,105 204,106 205,107 206,108 207,109 208,110 209,109 210,108 211,109 212,110 213,109 214,108 215,107 216,106 217,105 218,104 219,103 220,102 221,103 222,102 223,103 224,104 225,105 226,106 227,105 228,106 229,107 230,108 231,107 232,108 233,109 234,108 235,109 236,108 237,109 238,110 239,111 240,112 241,111 242,110 243,111 244,112 245,113 246,112 247,111 248,112 249,113 250,112 251,113 252,114 253,113 254,114 255,113 256,114 257,113 258,114 259,113 260,112 261,113 262,112 263,111 264,110 265,111 266,110 267,111 268,112 269,113 270,112 271,113 272,114 273,113 274,112 275,111 276,112 277,113 278,114 279,115 280,116 281,117 282,116 283,115 284,116 285,117 286,118 287,119 288,118 289,117 290,118 291,117 292,116 293,115 294,114 295,113 296,112 297,111 298,112 299,111 300,112 301,113 302,114 303,115 304,114 305,115 306,114 307,115 308,114 309,115 310,114 311,115 312,114 313,115 314,116 315,115 316,114 317,115 318,116 319,115 320,116 321,117 322,116 323,115 324,116 325,117 326,116 327,115 328,114 329,113 330,114 331,113 332,114 333,113 334,112 335,111 336,112 337,113 338,114 339,115 340,116 341,117 342,118 343,119 344,118 345,117 346,116 347,115 348,114 349,113 350,112 351,111 352,110 353,111 354,112 355,111 356,110 357,109 358,110 359,109 360,108 361,109 362,108 363,109 364,110 365,111 366,110 367,111 368,110 369,109 370,108 371,107 372,106 373,107 374,108 375,107 376,108 377,107 378,108 379,107 380,108 381,107 382,106 383,105 384,106 385,107 386,106 387,107 388,108 389,107 390,108 391,107 392,106 393,107 394,106 395,107 396,108 397,107 398,106 399,105 400,200 " style="fill:rgb(48,150,154);stroke:rgb(0,50,54)"></polygon><polygon points="0,200 0,100 1,101 2,100 3,101 4,102 5,103 6,104 7,103 8,102 9,103 10,102 11,103 12,102 13,103 14,102 15,103 16,102 17,103 18,104 19,105 20,106 21,107 22,108 23,109 24,108 25,107 26,108 27,107 28,108 29,109 30,110 31,111 32,110 33,111 34,110 35,111 36,112 37,111 38,110 39,109 40,110 41,109 42,110 43,109 44,110 45,109 46,108 47,109 48,110 49,111 50,112 51,113 52,112 53,111 54,112 55,113 56,112 57,113 58,112 59,111 60,112 61,113 62,114 63,115 64,114 65,115 66,114 67,115 68,116 69,117 70,116 71,115 72,114 73,115 74,114 75,113 76,114 77,113 78,114 79,115 80,116 81,117 82,118 83,119 84,120 85,121 86,120 87,121 88,120 89,119 90,118 91,117 92,118 93,119 94,120 95,121 96,122 97,123 98,124 99,123 100,122 101,121 102,122 103,121 104,122 105,121 106,120 107,121 108,120 109,121 110,122 111,123 112,122 113,123 114,122 115,121 116,122 117,121 118,120 119,121 120,120 121,121 122,120 123,121 124,122 125,123 126,122 127,123 128,122 129,121 130,120 131,121 132,120 133,121 134,122 135,121 136,120 137,121 138,120 139,119 140,120 141,121 142,120 143,121 144,120 145,119 146,120 147,121 148,122 149,121 150,122 151,121 152,122 153,123 154,124 155,123 156,124 157,123 158,122 159,121 160,122 161,121 162,120 163,119 164,120 165,121 166,122 167,123 168,122 169,123 170,124 171,125 172,126 173,125 174,124 175,123 176,122 177,121 178,120 179,119 180,120 181,119 182,120 183,119 184,118 185,119 186,120 187,121 188,122 189,123 190,124 191,125 192,124 193,125 194,124 195,125 196,124 197,125 198,124 199,123 200,122 201,123 202,124 203,123 204,124 205,125 206,124 207,125 208,126 209,127 210,128 211,127 212,128 213,127 214,126 215,127 216,128 217,129 218,128 219,129 220,128 221,127 222,126 223,125 224,124 225,125 226,126 227,127 228,126 229,127 230,126 231,127 232,126 233,127 234,128 235,127 236,126 237,125 238,124 239,123 240,122 241,123 242,122 243,123 244,124 245,123 246,122 247,121 248,120 249,121 250,122 251,123 252,124 253,125 254,126 255,127 256,126 257,125 258,126 259,125 260,126 261,125 262,126 263,125 264,124 265,123 266,124 267,123 268,124 269,123 270,122 271,121 272,120 273,119 274,118 275,119 276,118 277,119 278,118 279,117 280,118 281,117 282,116 283,117 284,118 285,119 286,120 287,119 288,118 289,117 290,116 291,115 292,116 293,115 294,114 295,113 296,114 297,115 298,116 299,115 300,116 301,115 302,116 303,117 304,116 305,115 306,114 307,113 308,114 309,115 310,114 311,113 312,114 313,115 314,114 315,115 316,114 317,115 318,116 319,115 320,114 321,113 322,114 323,115 324,116 325,117 326,116 327,115 328,114 329,113 330,112 331,111 332,110 333,109 334,108 335,109 336,110 337,109 338,108 339,107 340,106 341,105 342,106 343,105 344,106 345,105 346,106 347,107 348,106 349,107 350,108 351,107 352,108 353,107 354,108 355,109 356,108 357,109 358,110 359,109 360,110 361,111 362,112 363,113 364,114 365,113 366,114 367,115 368,116 369,115 370,116 371,117 372,116 373,115 374,116 375,115 376,116 377,117 378,118 379,117 380,116 381,115 382,116 383,115 384,114 385,113 386,112 387,111 388,110 389,109 390,110 391,109 392,108 393,107 394,106 395,105 396,104 397,103 398,104 399,103 400,200 " style="fill:rgb(75,55,42);stroke:rgb(0,0,0)"></polygon><polygon points="0,200 0,100 1,101 2,102 3,101 4,100 5,99 6,100 7,99 8,100 9,99 10,98 11,97 12,98 13,99 14,100 15,99 16,100 17,101 18,100 19,101 20,102 21,101 22,100 23,101 24,102 25,103 26,104 27,103 28,102 29,103 30,102 31,101 32,102 33,103 34,104 35,103 36,104 37,105 38,106 39,105 40,104 41,105 42,106 43,105 44,104 45,103 46,102 47,101 48,102 49,101 50,100 51,99 52,98 53,97 54,96 55,97 56,96 57,97 58,96 59,95 60,96 61,97 62,98 63,97 64,96 65,95 66,96 67,97 68,96 69,95 70,96 71,97 72,96 73,95 74,94 75,93 76,94 77,93 78,94 79,95 80,94 81,93 82,92 83,91 84,92 85,91 86,90 87,91 88,90 89,91 90,92 91,91 92,90 93,89 94,88 95,89 96,88 97,87 98,86 99,87 100,88 101,89 102,90 103,89 104,88 105,89 106,88 107,89 108,88 109,89 110,88 111,89 112,88 113,89 114,88 115,89 116,88 117,87 118,88 119,89 120,88 121,89 122,90 123,91 124,90 125,91 126,90 127,91 128,90 129,91 130,90 131,91 132,92 133,91 134,90 135,91 136,90 137,89 138,90 139,89 140,88 141,89 142,88 143,87 144,86 145,87 146,88 147,87 148,86 149,87 150,86 151,87 152,86 153,87 154,88 155,87 156,86 157,85 158,84 159,85 160,84 161,83 162,84 163,85 164,86 165,85 166,86 167,87 168,86 169,87 170,88 171,87 172,88 173,87 174,86 175,87 176,86 177,87 178,86 179,85 180,86 181,85 182,86 183,85 184,84 185,83 186,84 187,83 188,84 189,83 190,82 191,83 192,84 193,85 194,84 195,83 196,82 197,81 198,80 199,81 200,80 201,81 202,82 203,81 204,80 205,79 206,78 207,77 208,78 209,77 210,78 211,79 212,78 213,79 214,78 215,79 216,80 217,81 218,82 219,81 220,80 221,81 222,80 223,81 224,82 225,83 226,82 227,81 228,82 229,83 230,84 231,85 232,86 233,87 234,86 235,87 236,86 237,87 238,88 239,87 240,86 241,85 242,86 243,87 244,86 245,85 246,86 247,85 248,84 249,83 250,82 251,83 252,82 253,83 254,82 255,81 256,80 257,79 258,80 259,81 260,82 261,83 262,84 263,85 264,84 265,83 266,82 267,83 268,82 269,81 270,82 271,81 272,82 273,83 274,82 275,83 276,84 277,83 278,84 279,83 280,84 281,83 282,82 283,83 284,84 285,83 286,84 287,85 288,86 289,85 290,86 291,87 292,86 293,85 294,86 295,85 296,86 297,85 298,86 299,85 300,86 301,85 302,84 303,83 304,82 305,81 306,80 307,79 308,80 309,79 310,80 311,81 312,80 313,81 314,82 315,83 316,82 317,81 318,80 319,79 320,80 321,81 322,82 323,81 324,82 325,83 326,84 327,83 328,84 329,85 330,84 331,85 332,84 333,85 334,86 335,85 336,84 337,83 338,84 339,83 340,82 341,81 342,82 343,83 344,82 345,83 346,84 347,85 348,86 349,87 350,86 351,85 352,86 353,87 354,88 355,87 356,86 357,85 358,86 359,87 360,88 361,87 362,86 363,85 364,86 365,87 366,88 367,89 368,90 369,91 370,92 371,93 372,92 373,93 374,92 375,93 376,92 377,93 378,92 379,93 380,92 381,91 382,92 383,91 384,90 385,89 386,88 387,87 388,86 389,85 390,84 391,85 392,86 393,87 394,86 395,85 396,86 397,87 398,88 399,87 400,200 " style="fill:rgb(213,148,190);stroke:rgb(113,48,90)"></polygon><polygon points="0,200 0,100 1,101 2,102 3,103 4,102 5,101 6,100 7,99 8,98 9,97 10,98 11,99 12,100 13,101 14,102 15,103 16,102 17,103 18,104 19,105 20,104 21,105 22,106 23,107 24,106 25,107 26,108 27,107 28,108 29,107 30,108 31,109 32,108 33,109 34,108 35,107 36,106 37,105 38,104 39,103 40,104 41,103 42,102 43,103 44,102 45,103 46,102 47,101 48,102 49,103 50,104 51,103 52,102 53,101 54,102 55,101 56,100 57,101 58,100 59,101 60,100 61,99 62,100 63,99 64,100 65,101 66,102 67,103 68,104 69,105 70,106 71,105 72,104 73,103 74,102 75,103 76,102 77,101 78,102 79,103 80,104 81,103 82,102 83,103 84,102 85,101 86,102 87,101 88,100 89,101 90,102 91,103 92,102 93,103 94,102 95,103 96,104 97,103 98,104 99,103 100,102 101,101 102,102 103,103 104,102 105,101 106,100 107,99 108,100 109,101 110,102 111,103 112,102 113,101 114,100 115,101 116,100 117,101 118,102 119,103 120,104 121,103 122,102 123,101 124,100 125,99 126,100 127,101 128,102 129,101 130,100 131,99 132,98 133,99 134,98 135,97 136,98 137,99 138,98 139,99 140,98 141,97 142,98 143,99 144,98 145,99 146,100 147,101 148,102 149,103 150,102 151,101 152,102 153,101 154,102 155,103 156,102 157,101 158,100 159,101 160,100 161,101 162,100 163,99 164,100 165,99 166,98 167,99 168,100 169,99 170,100 171,99 172,100 173,101 174,102 175,103 176,104 177,103 178,102 179,103 180,102 181,101 182,100 183,101 184,102 185,101 186,102 187,101 188,100 189,101 190,102 191,103 192,102 193,101 194,100 195,99 196,100 197,99 198,98 199,97 200,98 201,99 202,100 203,101 204,102 205,103 206,102 207,103 208,104 209,105 210,106 211,107 212,108 213,107 214,108 215,107 216,106 217,107 218,108 219,109 220,110 221,111 222,112 223,111 224,112 225,111 226,112 227,113 228,112 229,111 230,110 231,111 232,110 233,111 234,110 235,111 236,110 237,111 238,112 239,111 240,112 241,111 242,112 243,111 244,110 245,109 246,110 247,109 248,110 249,109 250,110 251,111 252,112 253,113 254,114 255,115 256,114 257,115 258,116 259,115 260,114 261,113 262,112 263,113 264,114 265,113 266,112 267,111 268,110 269,111 270,110 271,109 272,110 273,109 274,108 275,109 276,110 277,109 278,108 279,107 280,108 281,107 282,108 283,109 284,110 285,111 286,112 287,113 288,112 289,113 290,112 291,113 292,114 293,113 294,114 295,115 296,116 297,115 298,116 299,115 300,114 301,113 302,114 303,113 304,112 305,111 306,112 307,111 308,112 309,113 310,112 311,111 312,112 313,111 314,110 315,111 316,110 317,109 318,110 319,111 320,112 321,113 322,114 323,113 324,114 325,115 326,114 327,115 328,116 329,115 330,116 331,117 332,118 333,117 334,116 335,117 336,116 337,115 338,116 339,117 340,118 341,119 342,118 343,117 344,116 345,115 346,114 347,113 348,112 349,113 350,112 351,111 352,112 353,111 354,112 355,113 356,114 357,113 358,114 359,113 360,112 361,113 362,114 363,115 364,114 365,115 366,114 367,113 368,114 369,115 370,116 371,117 372,116 373,115 374,114 375,115 376,114 377,115 378,114 379,113 380,114 381,113 382,114 383,113 384,114 385,113 386,112 387,113 388,112 389,113 390,112 391,113 392,112 393,113 394,114 395,113 396,114 397,115 398,114 399,113 400,200 " style="fill:rgb(248,242,250);stroke:rgb(148,142,150)"></polygon></svg>